<?xml version="1.0" encoding="utf-8"?>
<!-- Generator: Adobe Illustrator 21.0.0, SVG Export Plug-In . SVG Version: 6.00 Build 0)  -->
<svg version="1.1" id="Capa_1" xmlns="http://www.w3.org/2000/svg" xmlns:xlink="http://www.w3.org/1999/xlink" x="0px" y="0px"
	 width="100px" height="100px" viewBox="0 0 100 100" style="enable-background:new 0 0 100 100;" xml:space="preserve">
<style type="text/css">
	.st0{fill:#6255A0;}
	.st1{fill-rule:evenodd;clip-rule:evenodd;fill:#6255A0;}
	.st2{fill-rule:evenodd;clip-rule:evenodd;fill:#E8A12E;}
</style>
<g>
	<g>
		<g>
			<path class="st0" d="M45.7,71.2c0.1-0.7,0.8-1.2,1.5-1.1c0.7,0.1,1.2,0.8,1.1,1.5c-0.4,2.5,0.8,5.1,2.9,7.5
				c2.3,2.6,5.7,4.9,9.5,6.1c0.7,0.2,1.1,1,0.9,1.7c-0.2,0.7-1,1.1-1.7,0.9c-4.3-1.4-8.1-3.9-10.7-6.9
				C46.6,77.9,45.2,74.5,45.7,71.2z"/>
			<path class="st0" d="M59.7,94.4c0.1,0.7-0.4,1.4-1.1,1.5c-0.7,0.1-1.4-0.4-1.5-1.1c-0.3-1.6-0.5-3.2-0.2-4.8
				c0.3-1.7,1-3.3,2.7-4.7c0.6-0.5,1.4-0.4,1.9,0.2c0.5,0.6,0.4,1.4-0.2,1.9c-1.1,0.9-1.6,1.9-1.7,3C59.3,91.8,59.4,93.1,59.7,94.4z
				"/>
			<path class="st0" d="M66.5,91.6c0.7,0.3,1,1.1,0.7,1.8c-0.3,0.7-1.1,1-1.8,0.7c-1.4-0.7-2.9-1.4-4-2.5c-1.2-1.2-2.1-2.7-2.3-4.9
				c-0.1-0.7,0.5-1.4,1.2-1.4c0.7-0.1,1.4,0.5,1.4,1.2c0.1,1.4,0.7,2.4,1.5,3.1C64.1,90.4,65.3,91,66.5,91.6z"/>
		</g>
	</g>
	<path class="st1" d="M34.1,2.7c11.5,7.3,30.6,48.6,3.8,48.3C14.6,50.8,38.2,18,34.1,2.7z"/>
	<path class="st2" d="M80.5,59.6C60.8,84,7.1,88.6,15.4,47c3.9-19.5,16.9-20.3,30.3-14.5C61,39,68.8,58.4,80.5,59.6z"/>
	<path class="st1" d="M18.4,43.4l-12.7,4l10.8,5.5C19.8,52.8,21,45.7,18.4,43.4z"/>
	<ellipse transform="matrix(0.1958 -0.9806 0.9806 0.1958 -22.0815 61.6601)" class="st1" cx="26.6" cy="44.3" rx="4" ry="1.9"/>
	<path class="st2" d="M80.5,59.6c1.1,0.1,8.4-2.2,5.1-5.3C82.4,51.3,80.5,58.4,80.5,59.6z"/>
	<path class="st2" d="M80.5,59.6c1.1,1.1,12.7,7.3,14,3.3C95.9,58.9,82.5,59.3,80.5,59.6z"/>
	<path class="st2" d="M80.5,59.6c0.8,0.5,4.4,5.1,1,5.7C78,65.9,80,60.4,80.5,59.6z"/>
	<g>
		<g>
			<path class="st0" d="M52,68.7c0-0.7,0.6-1.3,1.3-1.3c0.7,0,1.3,0.6,1.3,1.3c0,2.5,1.6,4.9,4,7c2.7,2.2,6.4,3.9,10.4,4.5
				c0.7,0.1,1.2,0.8,1.1,1.5c-0.1,0.7-0.8,1.2-1.5,1.1c-4.4-0.7-8.6-2.6-11.7-5.1C54,75.2,52,72,52,68.7z"/>
			<path class="st0" d="M69.5,89.4c0.2,0.7-0.1,1.5-0.8,1.7c-0.7,0.2-1.5-0.1-1.7-0.8c-0.5-1.5-1-3-1-4.7c0-1.7,0.5-3.4,1.9-5
				c0.5-0.6,1.3-0.6,1.9-0.1c0.6,0.5,0.6,1.3,0.1,1.9c-0.9,1-1.3,2.1-1.3,3.2C68.6,86.8,69,88.1,69.5,89.4z"/>
			<path class="st0" d="M75.7,85.5c0.7,0.2,1.1,0.9,0.9,1.7c-0.2,0.7-0.9,1.1-1.7,0.9c-1.5-0.4-3-0.9-4.4-1.9c-1.4-1-2.5-2.4-3-4.5
				c-0.2-0.7,0.3-1.4,1-1.6c0.7-0.2,1.4,0.3,1.6,1c0.3,1.4,1,2.2,2,2.9C73.2,84.7,74.5,85.1,75.7,85.5z"/>
		</g>
	</g>
	<path class="st1" d="M81.3,12.1c4.7,12.8-5.1,57.2-26.3,40.8C36.7,38.6,75.3,26.7,81.3,12.1z"/>
</g>
</svg>
