<?xml version="1.0" encoding="utf-8"?>
<!-- Generator: Adobe Illustrator 21.0.2, SVG Export Plug-In . SVG Version: 6.00 Build 0)  -->
<svg version="1.1" id="Capa_1" xmlns="http://www.w3.org/2000/svg" xmlns:xlink="http://www.w3.org/1999/xlink" x="0px" y="0px"
	 viewBox="0 0 857 306" style="enable-background:new 0 0 857 306;" xml:space="preserve">
<style type="text/css">
	.st0{fill:#A9EEE2;}
	.st1{fill:#9EBC37;}
	.st2{fill:#F5F5F6;}
	.st3{fill:#E1E1E0;}
	.st4{fill:#6E4D42;}
	.st5{fill:#5D4137;}
	.st6{fill:#327E3E;}
	.st7{fill:#1E5F30;}
	.st8{fill:#4E352E;}
</style>
<g>
	<path class="st0" d="M707.1,215.1v-5.5h3v-1.1h-46.1v1.1h2.8v5.5h-5.9v11.9h-9v-27.3h-36.8v-6h-2.8v6H607v45.1h-10v-27h-6.5V153
		l-22.7-10.3L545.2,153v31.3h-7.7v-8H530v8h-6.2v-3.1h-5.2v3.1H514v-55.2h-9.1v-4h6.3v-2.7H472v2.7h6.3v4h-9.1v55.2v33.5h-10v-88.6
		h-4.5V121H441v8.1h-8.1V121h-13.8v8.1h-4.5v86.6h-20.5v-7.5h-9v7.5h-3v16.7h-21.7v-25l-39.6-15.9v64.2h30h9.6h21.7h11.1h21.3h9.9
		H442h17.4h10H514h16h15.3h7.8h19.8h17.6h6.5h10h34.1h1.3h9.4h9h5.7h46.4v-40.7H707.1z M482.1,125h19v4h-19V125z M669.6,215.1v-5.5
		h34.7v5.5H669.6z"/>
</g>
<rect x="0.4" y="255.7" class="st1" width="857.2" height="50.7"/>
<g>
	<path class="st1" d="M237.1,258H0.4v-33.2c18.2-12.2,38.2-23.1,74-23.1C155.7,201.6,155.7,258,237.1,258z"/>
	<path class="st1" d="M74.4,258h162.7c-81.3,0-81.3-56.4-162.7-56.4h0V258z"/>
</g>
<path class="st1" d="M445.1,258c-104,0-104-72.1-208-72.1c-104,0-104,72.1-208,72.1H445.1z"/>
<path class="st1" d="M237.1,258h208c-104,0-104-72.1-208-72.1h0V258z"/>
<g>
	<path class="st1" d="M857.6,200.1V258H660.8c85.8,0,85.8-59.9,171.6-59.9C841.8,198.1,850.1,198.8,857.6,200.1z"/>
	<path class="st1" d="M857.6,200.1V258h-25.1v-59.9C841.8,198.1,850.1,198.8,857.6,200.1z"/>
</g>
<g>
	<path class="st2" d="M681.2,258c-2.5,0-4.6,2.1-4.6,4.6h9.2C685.8,260.1,683.8,258,681.2,258z"/>
	<path class="st3" d="M685.8,262.6c0-2.5-2.1-4.6-4.6-4.6v4.6H685.8z"/>
</g>
<g>
	<g>
		<path class="st4" d="M287.3,188.4v10.1c0,0.3,0.4,0.6,1,0.6c0.5,0,1-0.3,1-0.6v-10.1H287.3z"/>
		<path class="st5" d="M289.2,188.4v10.1c0,0.3-0.4,0.6-1,0.6v-10.7H289.2z"/>
	</g>
	<polygon class="st6" points="288.3,166 279.5,193.7 297.1,193.7 	"/>
	<polygon class="st7" points="297.1,193.7 288.3,166 288.3,193.7 	"/>
</g>
<g>
	<g>
		<path class="st4" d="M213.3,181.4v7.4c0,0.3,0.3,0.5,0.7,0.5s0.7-0.2,0.7-0.5v-7.4H213.3z"/>
		<path class="st5" d="M214.7,181.4v7.4c0,0.3-0.3,0.5-0.7,0.5v-7.8H214.7z"/>
	</g>
	<polygon class="st6" points="214,165.1 207.5,185.3 220.4,185.3 	"/>
	<polygon class="st7" points="220.4,185.3 214,165.1 214,185.3 	"/>
</g>
<g>
	<g>
		<path class="st4" d="M348,232.6v10.1c0,0.3,0.4,0.6,1,0.6s1-0.3,1-0.6v-10.1H348z"/>
		<path class="st5" d="M350,232.6v10.1c0,0.3-0.4,0.6-1,0.6v-10.7H350z"/>
	</g>
	<polygon class="st6" points="349,210.2 340.2,237.9 357.8,237.9 	"/>
	<polygon class="st7" points="357.8,237.9 349,210.2 349,237.9 	"/>
</g>
<g>
	<g>
		<path class="st4" d="M706.8,244.6v10.1c0,0.3,0.4,0.6,1,0.6c0.5,0,1-0.3,1-0.6v-10.1H706.8z"/>
		<path class="st5" d="M708.8,244.6v10.1c0,0.3-0.4,0.6-1,0.6v-10.7H708.8z"/>
	</g>
	<polygon class="st6" points="707.8,222.3 699,250 716.6,250 	"/>
	<polygon class="st7" points="716.6,250 707.8,222.3 707.8,250 	"/>
</g>
<g>
	<g>
		<path class="st4" d="M139.4,216.1v10.1c0,0.3,0.4,0.6,1,0.6c0.5,0,1-0.3,1-0.6v-10.1H139.4z"/>
		<path class="st5" d="M141.3,216.1v10.1c0,0.3-0.4,0.6-1,0.6v-10.7H141.3z"/>
	</g>
	<polygon class="st6" points="140.4,193.7 131.6,221.4 149.1,221.4 	"/>
	<polygon class="st7" points="149.1,221.4 140.4,193.7 140.4,221.4 	"/>
</g>
<g>
	<g>
		<path class="st4" d="M13.8,214v10.1c0,0.3,0.4,0.6,1,0.6c0.5,0,1-0.3,1-0.6V214H13.8z"/>
		<path class="st5" d="M15.7,214v10.1c0,0.3-0.4,0.6-1,0.6V214H15.7z"/>
	</g>
	<polygon class="st6" points="14.7,191.6 5.9,219.3 23.5,219.3 	"/>
	<polygon class="st7" points="23.5,219.3 14.7,191.6 14.7,219.3 	"/>
</g>
<g>
	<g>
		<path class="st4" d="M249.3,229.9v15.7c0,0.5,0.7,1,1.5,1c0.8,0,1.5-0.4,1.5-1v-15.7H249.3z"/>
		<path class="st5" d="M252.3,229.9v15.7c0,0.5-0.7,1-1.5,1v-16.7H252.3z"/>
	</g>
	<polygon class="st6" points="250.8,195 237.1,238.3 264.5,238.3 	"/>
	<polygon class="st7" points="264.5,238.3 250.8,195 250.8,238.3 	"/>
</g>
<g>
	<path class="st4" d="M176.3,238.2v34.3c0,1.2,1.5,2.1,3.3,2.1c1.8,0,3.3-1,3.3-2.1v-34.3H176.3z"/>
	<path class="st8" d="M182.8,238.2v34.3c0,1.2-1.5,2.1-3.3,2.1v-36.4H182.8z"/>
	<ellipse class="st6" cx="179.5" cy="217.6" rx="21.6" ry="40.7"/>
	<path class="st7" d="M179.5,176.9v81.4c11.9,0,21.6-18.2,21.6-40.7C201.1,195.1,191.5,176.9,179.5,176.9z"/>
	<circle class="st7" cx="169.5" cy="242.2" r="2.1"/>
	<circle class="st7" cx="175.1" cy="227.1" r="2.1"/>
	<circle class="st7" cx="162" cy="216" r="2.1"/>
	<circle class="st7" cx="173" cy="201.6" r="2.1"/>
	<circle class="st6" cx="183.9" cy="185.9" r="2.1"/>
	<circle class="st6" cx="192.4" cy="196.2" r="2.1"/>
	<circle class="st6" cx="183.9" cy="208.2" r="2.1"/>
	<circle class="st6" cx="192.4" cy="215" r="2.1"/>
	<circle class="st6" cx="183.2" cy="231.3" r="2.1"/>
	<circle class="st6" cx="189.9" cy="245.5" r="2.1"/>
	<circle class="st7" cx="169.5" cy="189.3" r="2.1"/>
</g>
<g>
	<path class="st4" d="M96.7,215.4v46.8c0,1.6,2,2.9,4.5,2.9c2.5,0,4.5-1.3,4.5-2.9v-46.8H96.7z"/>
	<path class="st8" d="M105.6,215.4v46.8c0,1.6-2,2.9-4.5,2.9v-49.8H105.6z"/>
	<ellipse class="st6" cx="101.2" cy="187.2" rx="29.5" ry="55.6"/>
	<path class="st7" d="M101.2,131.6v111.1c16.3,0,29.5-24.9,29.5-55.6S117.5,131.6,101.2,131.6z"/>
	<circle class="st7" cx="87.5" cy="220.9" r="2.8"/>
	<circle class="st7" cx="95.1" cy="200.2" r="2.8"/>
	<circle class="st7" cx="77.2" cy="185.1" r="2.8"/>
	<circle class="st7" cx="92.3" cy="165.4" r="2.8"/>
	<circle class="st6" cx="107.2" cy="143.9" r="2.8"/>
	<circle class="st6" cx="118.8" cy="157.9" r="2.8"/>
	<circle class="st6" cx="107.2" cy="174.3" r="2.8"/>
	<circle class="st6" cx="118.8" cy="183.6" r="2.8"/>
	<circle class="st6" cx="106.2" cy="205.9" r="2.8"/>
	<circle class="st6" cx="115.4" cy="225.4" r="2.8"/>
	<circle class="st7" cx="87.5" cy="148.5" r="2.8"/>
</g>
<g>
	<path class="st4" d="M746.6,228.8V269c0,1.4,1.7,2.5,3.8,2.5c2.1,0,3.8-1.1,3.8-2.5v-40.2H746.6z"/>
	<path class="st8" d="M754.3,228.8V269c0,1.4-1.7,2.5-3.8,2.5v-42.7H754.3z"/>
	<ellipse class="st6" cx="750.5" cy="204.6" rx="25.3" ry="47.7"/>
	<path class="st7" d="M750.5,156.9v95.3c14,0,25.3-21.3,25.3-47.7C775.8,178.3,764.5,156.9,750.5,156.9z"/>
	<circle class="st7" cx="738.7" cy="233.5" r="2.4"/>
	<circle class="st7" cx="745.3" cy="215.8" r="2.4"/>
	<circle class="st7" cx="729.9" cy="202.8" r="2.4"/>
	<circle class="st7" cx="742.9" cy="185.9" r="2.4"/>
	<circle class="st6" cx="755.6" cy="167.5" r="2.4"/>
	<circle class="st6" cx="765.6" cy="179.5" r="2.4"/>
	<circle class="st6" cx="755.6" cy="193.6" r="2.4"/>
	<circle class="st6" cx="765.6" cy="201.6" r="2.4"/>
	<circle class="st6" cx="754.8" cy="220.7" r="2.4"/>
	<circle class="st6" cx="762.7" cy="237.4" r="2.4"/>
	<circle class="st7" cx="738.7" cy="171.5" r="2.4"/>
</g>
<g>
	<path class="st6" d="M369,270.1c-4.6,0-8.3,3.7-8.3,8.3h16.6C377.3,273.8,373.5,270.1,369,270.1z"/>
	<path class="st7" d="M376.6,272.9c-3,0-5.5,2.4-5.5,5.5h10.9C382.1,275.4,379.6,272.9,376.6,272.9z"/>
</g>
<g>
	<path class="st4" d="M816.2,230.1v57.2c0,2,2.4,3.6,5.4,3.6c3,0,5.4-1.6,5.4-3.6v-57.2H816.2z"/>
	<path class="st8" d="M827.1,230.1v57.2c0,2-2.4,3.6-5.4,3.6v-60.8H827.1z"/>
	<ellipse class="st6" cx="821.6" cy="195.6" rx="36.1" ry="67.9"/>
	<path class="st7" d="M821.6,127.8v135.7c19.9,0,36.1-30.4,36.1-67.9C857.7,158.2,841.6,127.8,821.6,127.8z"/>
	<circle class="st7" cx="804.9" cy="236.8" r="3.5"/>
	<circle class="st7" cx="814.3" cy="211.6" r="3.5"/>
	<circle class="st7" cx="792.4" cy="193.1" r="3.5"/>
	<circle class="st7" cx="810.8" cy="169.1" r="3.5"/>
	<circle class="st6" cx="829" cy="142.8" r="3.5"/>
	<circle class="st6" cx="843.1" cy="160" r="3.5"/>
	<circle class="st6" cx="829" cy="180" r="3.5"/>
	<circle class="st6" cx="843.1" cy="191.3" r="3.5"/>
	<circle class="st6" cx="827.8" cy="218.6" r="3.5"/>
	<circle class="st6" cx="839" cy="242.3" r="3.5"/>
	<circle class="st7" cx="804.9" cy="148.5" r="3.5"/>
</g>
<g>
	<path class="st2" d="M572.1,277.3c-4.8,0-8.8,3.9-8.8,8.8h17.5C580.9,281.2,576.9,277.3,572.1,277.3z"/>
	<path class="st3" d="M580.9,286.1c0-4.8-3.9-8.8-8.8-8.8v8.8H580.9z"/>
</g>
<g>
	<path class="st2" d="M157.9,270.8c-4.8,0-8.8,3.9-8.8,8.8h17.5C166.7,274.7,162.7,270.8,157.9,270.8z"/>
	<path class="st3" d="M166.7,279.6c0-4.8-3.9-8.8-8.8-8.8v8.8H166.7z"/>
</g>
<g>
	<path class="st2" d="M214,264.2c-2.5,0-4.6,2.1-4.6,4.6h9.2C218.6,266.3,216.5,264.2,214,264.2z"/>
	<path class="st3" d="M218.6,268.8c0-2.5-2.1-4.6-4.6-4.6v4.6H218.6z"/>
</g>
<g>
	<path class="st2" d="M770.5,267.2c-3.7,0-6.7,3-6.7,6.7h13.4C777.2,270.2,774.2,267.2,770.5,267.2z"/>
	<path class="st3" d="M777.2,273.9c0-3.7-3-6.7-6.7-6.7v6.7H777.2z"/>
</g>
<g>
	<path class="st4" d="M34.2,235v30c0,1,1.3,1.9,2.9,1.9c1.6,0,2.9-0.8,2.9-1.9v-30H34.2z"/>
	<path class="st8" d="M39.9,235v30c0,1-1.3,1.9-2.9,1.9V235H39.9z"/>
	<ellipse class="st6" cx="37" cy="216.9" rx="18.9" ry="35.6"/>
	<path class="st7" d="M37,181.4v71.1c10.4,0,18.9-15.9,18.9-35.6S47.5,181.4,37,181.4z"/>
	<circle class="st7" cx="28.2" cy="238.5" r="1.8"/>
	<circle class="st7" cx="33.1" cy="225.3" r="1.8"/>
	<circle class="st7" cx="21.7" cy="215.6" r="1.8"/>
	<circle class="st7" cx="31.3" cy="203" r="1.8"/>
	<circle class="st6" cx="40.9" cy="189.2" r="1.8"/>
	<circle class="st6" cx="48.3" cy="198.2" r="1.8"/>
	<circle class="st6" cx="40.9" cy="208.7" r="1.8"/>
	<circle class="st6" cx="48.3" cy="214.7" r="1.8"/>
	<circle class="st6" cx="40.3" cy="229" r="1.8"/>
	<circle class="st6" cx="46.1" cy="241.4" r="1.8"/>
	<circle class="st7" cx="28.2" cy="192.2" r="1.8"/>
</g>
<g>
	<path class="st6" d="M32.7,265.2c-2.7,0-4.9,2.2-4.9,4.9h9.7C37.6,267.4,35.4,265.2,32.7,265.2z"/>
	<path class="st7" d="M42.1,261.8c-4.5,0-8.2,3.7-8.2,8.2h16.4C50.3,265.5,46.6,261.8,42.1,261.8z"/>
</g>
</svg>
