<?xml version="1.0" encoding="utf-8"?>
<!-- Generator: Adobe Illustrator 21.0.0, SVG Export Plug-In . SVG Version: 6.00 Build 0)  -->
<svg version="1.1" id="Capa_1" xmlns="http://www.w3.org/2000/svg" xmlns:xlink="http://www.w3.org/1999/xlink" x="0px" y="0px"
	 width="151px" height="35px" viewBox="0 0 151 35" style="enable-background:new 0 0 151 35;" xml:space="preserve">
<style type="text/css">
	.st0{fill:#FFFFFF;}
</style>
<g>
	<g>
		<path class="st0" d="M35.9,19.5c-2.4,0-4.4,2-4.4,4.4v10.3h4.1c0.1,0,0.2,0,0.3,0c2.4,0,4.4-2,4.4-4.4V19.5H35.9z"/>
		<path class="st0" d="M35.9,1.8c-2.4,0-4.4,2-4.4,4.4v10.3h4.1c0.1,0,0.2,0,0.3,0c2.4,0,4.4-2,4.4-4.4V1.8H35.9z"/>
		<polygon class="st0" points="10.9,37.1 5,37.1 5,31.2 		"/>
		<path class="st0" d="M18.2,13.6C12.6,13.6,8,18.2,8,23.9s4.6,10.3,10.3,10.3c0.2,0,0.5,0,0.7,0h9.6V23.9
			C28.5,18.2,23.9,13.6,18.2,13.6z M14.8,25.3c-1.1,0-2-0.9-2-2c0-1.1,0.9-2,2-2c1.1,0,2,0.9,2,2C16.8,24.5,15.9,25.3,14.8,25.3z"/>
	</g>
	<g>
		<path class="st0" d="M61.7,34.5c-4.8,0-9.6-3.4-9.6-11.6c0-8.2,4.8-11.6,9.6-11.6c2.2,0,4.2,0.6,5.6,1.5L66,15.3
			c-1-0.7-2.5-1.2-4-1.2c-3.2,0-6.4,2.4-6.4,8.7c0,6.3,3.2,8.7,6.4,8.7c1.5,0,3-0.5,4-1.2l1.2,2.6C65.8,33.9,63.9,34.5,61.7,34.5z"
			/>
		<path class="st0" d="M80.6,34.5C75,34.5,72,32,72,26.6v-15h3.5v15c0,3.3,1.7,4.9,5.1,4.9c2,0,3.9-0.4,4.7-0.7V11.7h3.4v21.2
			C87.1,33.8,83.9,34.5,80.6,34.5z"/>
		<path class="st0" d="M102.3,34.3c-1.5,0-3.2-0.3-4-0.6v9.2h-3.5V12.8c1.5-0.8,4.4-1.6,7.2-1.6c6.8,0,10.6,4.5,10.6,11.4
			C112.6,29.4,108.9,34.3,102.3,34.3z M102.1,14c-1.5,0-3.1,0.4-3.8,0.7v16.2c0.7,0.3,2.4,0.6,3.7,0.6c4.7,0,7.1-3.8,7.1-8.9
			C109.2,17.4,106.7,14,102.1,14z"/>
		<path class="st0" d="M119.7,7.1c-1.2,0-2.2-1-2.2-2.1c0-1.2,1-2.2,2.2-2.2c1.2,0,2.2,1,2.2,2.2C121.9,6.2,120.9,7.1,119.7,7.1z
			 M118,34V11.7h3.4V34H118z"/>
		<path class="st0" d="M125.5,34l12.8-15c1.7-2,3.4-4.1,3.4-6.8c0-3.5-2.6-5.7-7.1-5.7c-2.1,0-4.6,0.6-6.3,1.4L127,5.1
			c2.2-1,4.9-1.6,7.7-1.6c6.7,0,10.5,3.3,10.5,8.5c0,3.4-2.2,6.3-4.2,8.5l-9.4,10.4h14.3V34H125.5z"/>
	</g>
</g>
</svg>
