<?xml version="1.0" encoding="utf-8"?>
<!-- Generator: Adobe Illustrator 21.0.0, SVG Export Plug-In . SVG Version: 6.00 Build 0)  -->
<svg version="1.1" id="Capa_1" xmlns="http://www.w3.org/2000/svg" xmlns:xlink="http://www.w3.org/1999/xlink" x="0px" y="0px"
	 width="100px" height="100px" viewBox="0 0 100 100" style="enable-background:new 0 0 100 100;" xml:space="preserve">
<style type="text/css">
	.st0{fill:#FFFFFF;}
</style>
<path class="st0" d="M74.7,8.6c-0.1-0.7-0.6-1.3-1.3-1.5c-4-1.5-9.3-2.9-15-2.9c-4.5,0-9.2,0.9-13.6,3.5l0,0c-2.2,1.3-4,2.9-5.3,4.7
	c-2,2.8-3.1,5.9-3.7,9.1c-0.5,2.6-0.7,5.3-0.8,7.8c-1.1,0-2.5,0-3.6,0c-1,0-2,0-2.7,0c-0.3,0-0.6,0-0.8,0c-0.2,0-0.3,0-0.3,0
	c-0.5,0-1,0.2-1.4,0.6c-0.4,0.4-0.6,0.9-0.6,1.4l0.1,12.9c0,1.1,0.9,2,2,2c0,0,0.5,0,1.4,0c1.9,0,5.5-0.1,8.2,0
	c0.4,8.9,0.5,22.2,0.5,32.5c0,4.4,0,8.2,0,10.9c0,1.4,0,2.4,0,3.2c0,0.8,0,1.2,0,1.2c0,0.5,0.2,1,0.6,1.4c0.4,0.4,0.9,0.6,1.4,0.6
	L57,95.9c0.5,0,1-0.2,1.4-0.6c0.4-0.4,0.6-0.9,0.6-1.4c0,0-0.1-10.6-0.2-22.1c-0.1-9.9-0.2-20.4-0.2-25.2c1.1,0,2.3,0,3.5,0
	c1.4,0,2.8,0,3.8,0c0.5,0,0.9,0,1.2,0c0.3,0,0.5,0,0.5,0c0.5,0,1-0.2,1.4-0.6c0.4-0.4,0.6-0.9,0.6-1.4l0-12c0-0.5-0.2-1.2-0.6-1.6
	c-0.4-0.4-0.9-0.7-1.4-0.7c0,0-0.2,0-0.7,0c-0.4,0-1,0.2-1.7,0.2c-2.2,0-5.5,0.1-8.1,0c0.1-1.3,0.2-2.5,0.4-3.5
	c0.2-1,0.4-1.8,0.8-2.4c0.2-0.5,0.5-0.9,0.8-1.2c0.4-0.5,0.9-0.8,1.4-1.1c0.6-0.2,1.3-0.4,2.2-0.4c1.7,0,3.9,0.5,6.8,1.6
	c0,0,0,0,0.1,0c0,0,0,0,0.1,0c0,0,0.1,0,0.1,0c0.1,0,0.1,0,0.2,0c0.1,0,0.1,0,0.2,0c0.1,0,0.1,0,0.2,0c0.1,0,0.1,0,0.2,0
	c0.1,0,0.1,0,0.2,0c0.1,0,0.1,0,0.2-0.1c0.1,0,0.1,0,0.2-0.1c0.1,0,0.1-0.1,0.2-0.1c0.1,0,0.1-0.1,0.2-0.1c0.1,0,0.1-0.1,0.1-0.1
	c0.1,0,0.1-0.1,0.1-0.1c0,0,0.1-0.1,0.1-0.1c0-0.1,0.1-0.1,0.1-0.2c0-0.1,0.1-0.1,0.1-0.2c0,0,0-0.1,0.1-0.1c0,0,0,0,0-0.1
	c0,0,0,0,0-0.1c0.4-1.3,1.1-3.5,1.7-5.8c0.3-1.1,0.6-2.3,0.8-3.5c0.2-1.1,0.3-2.2,0.3-3.2C74.7,9.5,74.7,9,74.7,8.6z"/>
</svg>
