<?xml version="1.0" encoding="utf-8"?>
<!-- Generator: Adobe Illustrator 21.0.0, SVG Export Plug-In . SVG Version: 6.00 Build 0)  -->
<svg version="1.1" id="Capa_1" xmlns="http://www.w3.org/2000/svg" xmlns:xlink="http://www.w3.org/1999/xlink" x="0px" y="0px"
	 width="100px" height="100px" viewBox="0 0 100 100" style="enable-background:new 0 0 100 100;" xml:space="preserve">
<style type="text/css">
	.st0{fill:#FFFFFF;}
</style>
<g>
	<path class="st0" d="M31.7,47.7l0,7.6h17.8C47.4,64.4,40.9,70,32.2,70c-11.4,0-20.7-9.3-20.7-20.7c0-11.4,9.3-20.7,20.7-20.7
		c5.4,0,10.4,2.1,14.1,5.5l5.8-5C47,24.1,40,21,32.2,21C16.6,21,3.9,33.7,3.9,49.4c0,15.7,12.7,28.4,28.4,28.4
		c15,0,25.9-11.5,25.9-27.1l0-2.9H31.7z"/>
	<polygon class="st0" points="96,48 85.1,48 85.1,37.1 78.2,37.1 78.2,48 67.3,48 67.3,54.9 78.2,54.9 78.2,65.8 85.1,65.8 
		85.1,54.9 96,54.9 	"/>
</g>
</svg>
