<?xml version="1.0" encoding="utf-8"?>
<!-- Generator: Adobe Illustrator 21.0.0, SVG Export Plug-In . SVG Version: 6.00 Build 0)  -->
<svg version="1.1" id="Capa_1" xmlns="http://www.w3.org/2000/svg" xmlns:xlink="http://www.w3.org/1999/xlink" x="0px" y="0px"
	 width="100px" height="100px" viewBox="0 0 100 100" style="enable-background:new 0 0 100 100;" xml:space="preserve">
<style type="text/css">
	.st0{fill:#FFFFFF;}
</style>
<g>
	<path id="LinkedIn" class="st0" d="M96.2,59.7V94H76.3V62c0-8-2.9-13.5-10.1-13.5c-5.5,0-8.8,3.7-10.2,7.3
		c-0.5,1.3-0.7,3.1-0.7,4.9V94H35.4c0,0,0.3-54.3,0-59.9h19.9v8.5c0,0.1-0.1,0.1-0.1,0.2h0.1v-0.2c2.6-4.1,7.4-9.9,17.9-9.9
		C86.4,32.7,96.2,41.3,96.2,59.7z M14.6,5.3C7.8,5.3,3.3,9.7,3.3,15.6c0,5.7,4.3,10.4,11,10.4h0.1c7,0,11.3-4.6,11.3-10.4
		C25.6,9.7,21.4,5.3,14.6,5.3z M4.5,94h19.9V34.1H4.5V94z"/>
</g>
</svg>
