<?xml version="1.0" encoding="utf-8"?>
<!-- Generator: Adobe Illustrator 21.0.0, SVG Export Plug-In . SVG Version: 6.00 Build 0)  -->
<svg version="1.1" id="Capa_1" xmlns="http://www.w3.org/2000/svg" xmlns:xlink="http://www.w3.org/1999/xlink" x="0px" y="0px"
	 width="100px" height="100px" viewBox="0 0 100 100" style="enable-background:new 0 0 100 100;" xml:space="preserve">
<style type="text/css">
	.st0{fill:#FFFFFF;}
</style>
<path class="st0" d="M94.3,7.2l-13.8,6.3l9-11.1l-18.6,8.4c-3-1.6-6.4-2.5-10-2.5c-11.8,0-21.4,9.6-21.4,21.4c0,7.6,4,14.3,9.9,18.1
	c-10.2-1-19.4-7.6-23.2-17.7c-8.2,6.9-12.1,18.2-8.9,29.1c3.4,11.7,13.9,19.5,25.5,19.9C32.6,87.9,18.6,89.5,7,84.2
	c19.2,18.6,49.8,18.5,68.8-0.5c16.7-16.7,18.8-42.5,6.4-61.5L94.3,7.2z"/>
</svg>
