<?xml version="1.0" encoding="utf-8"?>
<!-- Generator: Adobe Illustrator 21.0.0, SVG Export Plug-In . SVG Version: 6.00 Build 0)  -->
<svg version="1.1" id="Capa_1" xmlns="http://www.w3.org/2000/svg" xmlns:xlink="http://www.w3.org/1999/xlink" x="0px" y="0px"
	 width="100px" height="100px" viewBox="0 0 100 100" style="enable-background:new 0 0 100 100;" xml:space="preserve">
<style type="text/css">
	.st0{fill:#FFFFFF;}
</style>
<g>
	<g>
		<path class="st0" d="M84.9,87.8C68.3,98.6,51.1,98,51.1,98s-0.5-2.2-0.3-6c0.2-3.8,2.3-2.7,3.8-5.7c0.5-1.1,1-1.8,1.8-4.4
			c0-0.1-1-18.2-1.2-26c-0.1-4.1-0.9-11.1-1.8-17.8c-0.5-4-1.7-7.2-2.3-10.9c-0.8-5.5-1.7-11.6-1.7-11.6c-0.7,1.7-1.6,8.3-2.6,15.6
			c-0.5,3.5-0.9,7.2-1.4,10.7c-0.9,7.4-3.2,27.1-3.6,28.2c-0.5,1.6-0.6-0.4-0.6-0.4s1.3-20.7,1.8-29.7c0.2-4.4,0.5-9.3,1.1-14
			c0.4-3.5,1-6.9,1.7-9.9c0,0,2.4-7.2,3.1-7.3c0.7-0.1,3.5,4.5,4.4,8.7c2.1,9.4,3.3,10.5,4.9,20.4c1.5,9.3,2.9,17.1,3.1,18.4
			c0.7,4.6,0.4,19.1-0.8,24.8c-0.3,1.6-0.4,2.2-1.4,3.2c-2.4,2.4-4.1,5.3-4.1,7.2c0,1.9-0.3,1.8,0.1,2.9c0,0,3.2,4.8,21.4-6.1
			c0,0,5.7-3,5.7-9.6V12.1c0,0-18-6.1-31.9-6.1c-13.9,0-31.3,6.1-31.3,6.1v66.2c0,4.1,0.6,11.7,6.4,14.3c0,0-15.5-5.3-15.5-14.4V6.4
			c0,0,23.7-4.4,40.4-4.4C66.9,2.1,91,6.4,91,6.4s0,65.7,0,71.9C91,84.5,84.9,87.8,84.9,87.8z"/>
	</g>
</g>
</svg>
